<svg xmlns="http://www.w3.org/2000/svg" width="220" height="220" viewBox="0 0 220 220">
  <g id="Grupo_2022" data-name="Grupo 2022" transform="translate(-137 -924)">
    <circle id="Elipse_5" data-name="Elipse 5" cx="110" cy="110" r="110" transform="translate(137 924)" fill="#00b0eb"/>
    <path id="Trazado_1042" data-name="Trazado 1042" d="M81.609,137.786a4.957,4.957,0,0,0,4.981,4.981h28.231v68.087a4.96,4.96,0,0,1-4.983,4.981H40.094a4.96,4.96,0,0,1-4.983-4.981V114.537a4.96,4.96,0,0,1,4.983-4.981H81.609Zm13.285,20.757a2.483,2.483,0,0,0-2.491-2.491H57.529a2.483,2.483,0,0,0-2.491,2.491V160.2a2.48,2.48,0,0,0,2.491,2.491H92.4a2.48,2.48,0,0,0,2.491-2.491Zm0,14.946v-1.661a2.48,2.48,0,0,0-2.491-2.491H57.529a2.48,2.48,0,0,0-2.491,2.491v1.661a2.48,2.48,0,0,0,2.491,2.491H92.4a2.48,2.48,0,0,0,2.491-2.491Zm0,13.285v-1.661a2.48,2.48,0,0,0-2.491-2.491H57.529a2.48,2.48,0,0,0-2.491,2.491v1.661a2.48,2.48,0,0,0,2.491,2.491H92.4a2.48,2.48,0,0,0,2.491-2.491Zm19.928-51.894a4.8,4.8,0,0,0-1.453-3.529L93.026,111.009a4.805,4.805,0,0,0-3.529-1.453H88.252v26.568h26.57Z" transform="translate(171.889 869.444)" fill="#fff"/>
  </g>
</svg>
