<svg xmlns="http://www.w3.org/2000/svg" xmlns:xlink="http://www.w3.org/1999/xlink" width="985" height="132" viewBox="0 0 985 132">
  <defs>
    <filter id="Línea_2" x="55.5" y="46" width="882" height="19" filterUnits="userSpaceOnUse">
      <feOffset dy="3" input="SourceAlpha"/>
      <feGaussianBlur stdDeviation="3" result="blur"/>
      <feFlood flood-opacity="0.161"/>
      <feComposite operator="in" in2="blur"/>
      <feComposite in="SourceGraphic"/>
    </filter>
  </defs>
  <g id="Grupo_2029" data-name="Grupo 2029" transform="translate(-48 -543)">
    <g transform="matrix(1, 0, 0, 1, 48, 543)" filter="url(#Línea_2)">
      <line id="Línea_2-2" data-name="Línea 2" x2="864" transform="translate(64.5 52.5)" fill="none" stroke="#707070" stroke-width="1"/>
    </g>
    <circle id="Elipse_135" data-name="Elipse 135" cx="41" cy="41" r="41" transform="translate(83 543)" fill="#aaa"/>
    <circle id="Elipse_136" data-name="Elipse 136" cx="41" cy="41" r="41" transform="translate(382 543)" fill="#aaa"/>
    <circle id="Elipse_138" data-name="Elipse 138" cx="41" cy="41" r="41" transform="translate(923 543)" fill="#aaa"/>
    <rect id="Rectángulo_2062" data-name="Rectángulo 2062" width="287" height="18" transform="translate(124 575)" fill="#aaa"/>
    <rect id="Rectángulo_2063" data-name="Rectángulo 2063" width="287" height="18" transform="translate(440 575)" fill="#aaa"/>
    <rect id="Rectángulo_2064" data-name="Rectángulo 2064" width="287" height="18" transform="translate(692 575)" fill="#aaa"/>
    <circle id="Elipse_137" data-name="Elipse 137" cx="41" cy="41" r="41" transform="translate(654 543)" fill="#aaa"/>
    <text id="Procesado" transform="translate(121 662)" fill="#aaa" font-size="33" font-family="TitilliumWeb-Regular, Titillium Web"><tspan x="-72.847" y="0">Procesado</tspan></text>
    <text id="Empacando" transform="translate(423 662)" fill="#aaa" font-size="33" font-family="TitilliumWeb-Regular, Titillium Web"><tspan x="-81.642" y="0">Empacando</tspan></text>
    <text id="En_Tránsito" data-name="En Tránsito" transform="translate(695 662)" fill="#aaa" font-size="33" font-family="TitilliumWeb-Regular, Titillium Web"><tspan x="-77.5" y="0">En Tránsito</tspan></text>
    <text id="Entregado" transform="translate(961 662)" fill="#aaa" font-size="33" font-family="TitilliumWeb-Regular, Titillium Web"><tspan x="-71.791" y="0">Entregado</tspan></text>
  </g>
</svg>
