<svg xmlns="http://www.w3.org/2000/svg" width="220" height="220" viewBox="0 0 220 220">
  <g id="Grupo_2024" data-name="Grupo 2024" transform="translate(-744 -924)">
    <circle id="Elipse_7" data-name="Elipse 7" cx="110" cy="110" r="110" transform="translate(744 924)" fill="#00b0eb"/>
    <path id="Trazado_1044" data-name="Trazado 1044" d="M164.64,338.256a3.2,3.2,0,0,1,3.32,3.322v6.643a3.2,3.2,0,0,1-3.32,3.32h-9.963a19.964,19.964,0,0,1-34.044,14.117,19.221,19.221,0,0,1-5.811-14.117H88.252a19.844,19.844,0,0,1-19.928,19.928A19.844,19.844,0,0,1,48.4,351.542V324.973H79.948a1.786,1.786,0,0,0,1.661-1.661V319.99a1.782,1.782,0,0,0-1.661-1.659H36.772a1.79,1.79,0,0,1-1.661-1.661v-3.322a1.786,1.786,0,0,1,1.661-1.659H86.59a1.79,1.79,0,0,0,1.661-1.661V306.7a1.786,1.786,0,0,0-1.661-1.659H43.415a1.79,1.79,0,0,1-1.661-1.661v-3.322a1.786,1.786,0,0,1,1.661-1.659H93.233a1.79,1.79,0,0,0,1.661-1.661V293.42a1.786,1.786,0,0,0-1.661-1.659H36.772a1.79,1.79,0,0,1-1.661-1.661v-3.322a1.786,1.786,0,0,1,1.661-1.659H48.4v-9.965a9.924,9.924,0,0,1,9.965-9.963H111.5a9.924,9.924,0,0,1,9.963,9.963v9.965H130.6a9.61,9.61,0,0,1,7.057,2.906l20.757,20.757a9.609,9.609,0,0,1,2.907,7.059v22.417Zm-96.316,23.25a9.921,9.921,0,1,0-7.057-2.906A9.607,9.607,0,0,0,68.324,361.506Zm83.031-43.176V315.84L130.6,295.081h-9.133v23.25Zm-16.606,43.176a9.921,9.921,0,1,0-7.059-2.906A9.61,9.61,0,0,0,134.749,361.506Z" transform="translate(757.706 713.81)" fill="#fff"/>
  </g>
</svg>
