<svg xmlns="http://www.w3.org/2000/svg" width="220" height="220" viewBox="0 0 220 220">
  <g id="Grupo_2023" data-name="Grupo 2023" transform="translate(-442 -924)">
    <circle id="Elipse_6" data-name="Elipse 6" cx="110" cy="110" r="110" transform="translate(442 924)" fill="#00b0eb"/>
    <path id="Trazado_1043" data-name="Trazado 1043" d="M128.107,233.41a13.115,13.115,0,0,1,13.285,13.285v23.25a3.2,3.2,0,0,1-3.322,3.32h-9.963v19.928a6.734,6.734,0,0,1-6.643,6.643H55.039a6.734,6.734,0,0,1-6.643-6.643V273.265H38.433a3.2,3.2,0,0,1-3.322-3.32v-23.25A13.115,13.115,0,0,1,48.4,233.41V200.2a6.734,6.734,0,0,1,6.643-6.643h57.084a6.211,6.211,0,0,1,4.567,1.868l9.548,9.548a6.212,6.212,0,0,1,1.869,4.567Zm-13.285,6.643V220.124h-9.965a3.2,3.2,0,0,1-3.32-3.32v-9.963H61.681v33.211Zm0,46.5V266.622H61.681V286.55ZM124.785,255a4.96,4.96,0,1,0-3.529-1.453A4.805,4.805,0,0,0,124.785,255Z" transform="translate(463.945 785.444)" fill="#fff"/>
  </g>
</svg>
